<svg data-v-0dd9719b="" version="1.0" xmlns="http://www.w3.org/2000/svg" xmlns:xlink="http://www.w3.org/1999/xlink" width="100%" height="100%" viewBox="0 0 340.000000 250.000000" preserveAspectRatio="xMidYMid meet" color-interpolation-filters="sRGB" style="margin: auto;"> <rect data-v-0dd9719b="" x="0" y="0" width="100%" height="100%" fill="#fff" fill-opacity="1" class="background"></rect> <rect data-v-0dd9719b="" x="0" y="0" width="100%" height="100%" fill="url(#watermark)" fill-opacity="1" class="watermarklayer"></rect> <g data-v-0dd9719b="" fill="#333" class="icon-text-wrapper icon-svg-group iconsvg" transform="translate(73.16000366210938,95.01139640808105)"><g class="iconsvg-imagesvg" transform="translate(0,0)"><g><rect fill="#333" fill-opacity="0" stroke-width="2" x="0" y="0" width="60" height="59.977208660708925" class="image-rect"></rect> <svg x="0" y="0" width="60" height="59.977208660708925" filtersec="colorsb3087424643" class="image-svg-svg primary" style="overflow: visible;"><svg xmlns="http://www.w3.org/2000/svg" viewBox="-0.024392234161496162 -0.00439166696742177 206.4888916015625 206.41061401367188"><title>资源 7</title><g fill-rule="evenodd"><path d="M176.24 176.18a102.91 102.91 0 0 1-76.44 30.16c-8.75-.29-10.94-10.72-6.79-17 17.92-27.07 75.72-28.09 101.23-60a56.23 56.23 0 0 0 10.57-21.88c.56-2.21 1.26-4.67 1.63-6.42a102.92 102.92 0 0 1-30.2 75.1z" fill="#03b2de" opacity=".48"></path><path d="M176.18 176.24a102.92 102.92 0 0 0 30.16-76.44c-.29-8.76-10.73-10.94-17-6.79C168.21 107 163 145.3 146.5 173.56c-9.44 16.21-25.92 31.19-45.38 32.82a102.78 102.78 0 0 0 75.06-30.14z" fill="#8e03ff" opacity=".48"></path><path d="M30.22 30.28A102.94 102.94 0 0 1 106.66.12c8.77.29 10.94 10.73 6.79 17-17.91 27.07-75.72 28.09-101.23 60A56.23 56.23 0 0 0 1.65 99c-.56 2.17-1.25 4.63-1.65 6.38a102.93 102.93 0 0 1 30.2-75.1z" fill="#00deb9" opacity=".48"></path><path d="M30.28 30.22A102.94 102.94 0 0 0 .12 106.66c.29 8.77 10.73 10.94 17 6.79 27.07-17.91 28.09-75.72 60-101.23A56.23 56.23 0 0 1 99 1.65c2.21-.56 4.67-1.25 6.42-1.63a102.93 102.93 0 0 0-75.1 30.2z" fill="#1d88e1" opacity=".48"></path><path d="M44 187.8c-32.11-55.4 181.83-82.46 145-142a103.71 103.71 0 0 0-26.5-27.07c25.84 44.36-100 69.18-138.89 106.54C12.3 136.12 10.9 151.63 20 164.34a103.82 103.82 0 0 0 24 23.46z" fill="#8e03ff" opacity=".48"></path><path d="M187.75 44c-51.41-29.78-77.2 148.08-127.43 150-4.47.18-9.6-2-14.56-5a103.71 103.71 0 0 1-27.07-26.5C71.5 193.28 96.63 9 148.17 12.54c4.69.32 10.6 3.57 16.11 7.51a104.32 104.32 0 0 1 23.47 24z" fill="#1d88e1" opacity=".48"></path></g></svg></svg> <!----></g></g> <g transform="translate(67,7.148603439331055)"><g data-gra="path-name" fill-rule="" class="tp-name iconsvg-namesvg"><g transform="scale(1)"><g><path d="M22.32 1.85L22.32 1.85Q20.21 1.79 18.34 1.79 16.46 1.79 14.82 1.79L14.82 1.79Q11.48 1.79 9.1 1.86 6.71 1.93 5.13 1.99L5.13 1.99Q3.31 2.08 2.05 2.17L2.05 2.17Q2.26 0.21 2.42-1.82 2.58-3.84 2.7-5.8 2.81-7.76 2.9-9.61 2.99-11.46 3.05-13.1L3.05-13.1Q3.16-16.9 3.19-20.45L3.19-20.45Q3.16-23.96 3.05-27.66L3.05-27.66Q2.99-29.24 2.9-30.98 2.81-32.72 2.7-34.54 2.58-36.36 2.42-38.19 2.26-40.02 2.05-41.75L2.05-41.75 10.69-42.19Q10.14-35.57 9.93-29.43 9.73-23.29 9.73-18.11L9.73-18.11Q9.73-13.13 9.83-9.58 9.93-6.04 10.02-4.19L10.02-4.19 10.14-4.19Q12.42-4.19 14.6-4.54 16.79-4.89 18.52-5.33L18.52-5.33Q20.54-5.83 22.32-6.47L22.32-6.47Q22.29-6.15 22.29-5.65L22.29-5.65Q22.27-5.24 22.27-4.58 22.27-3.93 22.27-2.99L22.27-2.99Q22.27-2.05 22.27-0.86 22.27 0.32 22.32 1.85ZM33.34 0.29L33.34 0.29 25.61 1.08Q25.66-0.88 25.71-3 25.75-5.13 25.78-7.24 25.81-9.35 25.84-11.38 25.87-13.42 25.87-15.23L25.87-15.23Q25.9-19.51 25.9-23.64L25.9-23.64Q25.87-27.33 25.81-30.79L25.81-30.79Q25.78-32.26 25.74-33.81 25.69-35.36 25.63-36.86 25.58-38.35 25.5-39.68 25.43-41.02 25.31-42.07L25.31-42.07 32.7-42.42Q32.64-40.61 32.59-38.69 32.55-36.77 32.52-34.88 32.49-32.99 32.48-31.23 32.46-29.47 32.46-27.95L32.46-27.95Q32.46-20.3 32.65-13.37 32.84-6.45 33.34 0.29ZM70.14 0.73L70.14 0.73 62.08 1.32Q62.34-2.55 62.5-5.77 62.67-8.99 62.72-11.37L62.72-11.37Q62.81-14.12 62.81-16.38L62.81-16.38Q62.81-17.43 62.78-18.75L62.78-18.75Q62.75-19.86 62.71-21.42 62.67-22.97 62.58-24.84L62.58-24.84Q61.82-21.3 61.25-18.74 60.67-16.17 60.32-14.5L60.32-14.5Q59.88-12.54 59.62-11.22L59.62-11.22Q59.21-9.43 58.89-7.65L58.89-7.65Q58.59-6.12 58.33-4.39 58.07-2.67 57.95-1.26L57.95-1.26 50.45-1.32Q49.83-5.13 49.2-8.63 48.57-12.13 47.92-15.4 47.26-18.66 46.57-21.75 45.88-24.84 45.12-27.89L45.12-27.89Q44.97-24.96 44.91-22.59 44.85-20.21 44.85-18.49L44.85-18.49Q44.85-13.51 45.12-9.05 45.38-4.6 45.82-0.23L45.82-0.23 37.18 0Q37.38-2.11 37.53-4.56 37.68-7 37.78-9.51 37.88-12.01 37.94-14.43 38-16.85 38.03-18.96 38.06-21.06 38.07-22.71 38.09-24.35 38.09-25.25L38.09-25.25Q38.09-26.89 38.07-29 38.06-31.11 38.01-33.33 37.97-35.54 37.91-37.66 37.85-39.79 37.73-41.46L37.73-41.46Q39.14-41.4 40.4-41.37 41.66-41.34 42.77-41.34L42.77-41.34Q45.62-41.34 47.2-41.43L47.2-41.43Q48.13-41.46 48.84-41.51L48.84-41.51Q49.25-37.79 49.73-34.26 50.21-30.73 50.8-27.33 51.39-23.94 52.08-20.61 52.76-17.29 53.55-13.97L53.55-13.97Q54.61-17.7 55.58-21.27 56.54-24.84 57.33-28.33 58.13-31.82 58.71-35.24 59.3-38.67 59.62-42.07L59.62-42.07Q60.7-42.01 61.64-41.98 62.58-41.95 63.4-41.95L63.4-41.95Q65.07-41.95 66.23-42.01 67.38-42.07 68.14-42.16L68.14-42.16Q69.02-42.25 69.58-42.36L69.58-42.36Q69.35-39.29 69.2-36.27 69.05-33.25 68.98-30.53 68.91-27.8 68.89-25.53 68.88-23.26 68.88-21.71L68.88-21.71Q68.88-21.06 68.89-19.72 68.91-18.37 68.96-16.54 69.02-14.71 69.11-12.54 69.2-10.37 69.33-8.09 69.46-5.8 69.67-3.54 69.87-1.29 70.14 0.73ZM99.23-8.82L99.23-8.82Q99.23-6.06 98.23-4.03 97.24-1.99 95.68-0.66 94.13 0.67 92.26 1.33 90.38 1.99 88.65 1.99L88.65 1.99Q85.78 1.99 83.06 0.69 80.33-0.62 78.18-3.38 76.03-6.15 74.72-10.5 73.42-14.85 73.42-20.95L73.42-20.95Q73.42-25.02 74.05-28.21 74.68-31.41 75.75-33.84 76.82-36.27 78.27-37.98 79.72-39.7 81.39-40.77 83.06-41.84 84.84-42.33 86.63-42.83 88.36-42.83L88.36-42.83Q90.97-42.83 92.86-42.1 94.75-41.37 95.98-40.22 97.21-39.08 97.79-37.68 98.38-36.27 98.38-34.92L98.38-34.92Q98.38-33.57 98.01-32.5 97.65-31.44 97.03-30.7 96.42-29.97 95.57-29.59 94.72-29.21 93.75-29.21L93.75-29.21Q92.93-29.21 92.11-29.5 91.29-29.79 90.64-30.35 90-30.91 89.6-31.71 89.21-32.52 89.21-33.54L89.21-33.54Q89.24-34.13 89.36-34.78L89.36-34.78Q89.47-35.33 89.72-35.99 89.97-36.65 90.47-37.32L90.47-37.32Q90.03-37.73 89.53-37.98 89.03-38.23 88.62-38.35L88.62-38.35Q88.13-38.47 87.63-38.53L87.63-38.53Q86.48-38.53 85.61-37.82 84.73-37.12 84.08-35.87 83.44-34.63 83-32.93 82.56-31.23 82.31-29.24 82.06-27.25 81.94-25.06 81.83-22.88 81.83-20.65L81.83-20.65Q81.83-17.31 82.19-14.08 82.56-10.84 83.39-8.28 84.23-5.71 85.62-4.15 87.01-2.58 89.03-2.58L89.03-2.58Q90.26-2.67 91.26-3.28L91.26-3.28Q91.7-3.54 92.11-3.94 92.52-4.34 92.86-4.94 93.19-5.54 93.41-6.33 93.63-7.12 93.69-8.17L93.69-8.17Q93.19-7.97 92.55-7.97L92.55-7.97Q91.85-7.97 91.19-8.28 90.53-8.58 90-9.13 89.47-9.67 89.15-10.42 88.83-11.16 88.83-12.07L88.83-12.07Q88.83-13.45 89.46-14.34 90.09-15.23 90.91-15.76 91.73-16.29 92.52-16.51 93.31-16.73 93.63-16.73L93.63-16.73Q93.87-16.73 94.37-16.66 94.86-16.58 95.49-16.32 96.12-16.05 96.78-15.54 97.44-15.03 97.98-14.15 98.53-13.27 98.88-11.97 99.23-10.66 99.23-8.82ZM128.73-21.01L128.73-21.01Q128.73-16.32 127.85-12.22 126.97-8.12 125.24-5.05 123.52-1.99 120.95-0.22 118.39 1.55 115.05 1.55L115.05 1.55Q111.65 1.55 109.09-0.22 106.52-1.99 104.81-5.05 103.1-8.12 102.23-12.22 101.37-16.32 101.37-21.01L101.37-21.01Q101.37-25.66 102.2-29.77 103.04-33.87 104.74-36.91 106.44-39.96 109.01-41.73 111.59-43.51 115.05-43.51L115.05-43.51Q118.62-43.51 121.22-41.73 123.81-39.96 125.48-36.91 127.15-33.87 127.94-29.77 128.73-25.66 128.73-21.01ZM121.05-21.01L121.05-21.01Q121.05-24.64 120.76-27.85 120.47-31.05 119.78-33.44 119.09-35.83 117.93-37.21 116.78-38.58 115.05-38.58L115.05-38.58Q113.38-38.58 112.24-37.21 111.09-35.83 110.39-33.44 109.69-31.05 109.37-27.85 109.04-24.64 109.04-21.01L109.04-21.01Q109.04-17.34 109.37-14.14 109.69-10.93 110.41-8.54 111.12-6.15 112.27-4.76 113.41-3.37 115.05-3.37L115.05-3.37Q116.66-3.37 117.8-4.76 118.95-6.15 119.68-8.54 120.41-10.93 120.73-14.14 121.05-17.34 121.05-21.01Z" transform="translate(-2.049999952316284, 43.5099983215332)"></path></g> <!----> <!----> <!----> <!----> <!----> <!----> <!----></g></g> <!----></g></g><defs v-gra="od"></defs></svg>